#!OML:ASF I:\Random Stuff\random\construction\7_22_03\Session 2\subj1.ASF
:FULLY-SPECIFIED
:DEGREES
812
root 4.01109 17.7175 -7.67271 17.9069 -29.3356 -3.83598
lowerback 10.0626 -0.220288 0.877353
upperback 3.26912 -0.213808 0.859455
thorax -2.24292 -0.121896 0.421016
lowerneck -22.0685 0.425955 -2.20153
upperneck 42.6606 0.640597 1.00397
head 20.701 -0.153765 0.998379
rclavicle -7.05686e-015 -9.14409e-015
rhumerus -15.0022 33.1407 -71.6997
rradius 77.6611
rwrist 23.8601
rhand -47.9091 -313.407
rfingers 7.12502
rthumb -20.5811 17.6643
lclavicle -7.05686e-015 -9.14409e-015
lhumerus -21.3672 -63.3805 108.571
lradius 75.9514
lwrist 68.859
lhand -26.7506 71.5828
lfingers 7.12502
lthumb -0.179251 -461.562
rfemur -23.8286 3.99652 18.6205
rtibia 14.362
rfoot -4.74113 -6.27483
rtoes -11.2536
lfemur -23.9804 -2.50036 -10.5798
ltibia 25.8978
lfoot -16.1158 10.8585
ltoes -31.8581
813
root 4.01668 17.719 -7.67519 17.9049 -29.4306 -3.80644
lowerback 10.0933 -0.21891 0.868313
upperback 3.25142 -0.209942 0.941088
thorax -2.27779 -0.120373 0.510335
lowerneck -22.0138 0.526111 -2.2627
upperneck 42.5812 0.861107 0.936233
head 20.6232 -0.0888118 1.02451
rclavicle 1.19271e-015 -1.61016e-014
rhumerus -14.2308 33.2243 -71.1482
rradius 77.2866
rwrist 23.9242
rhand -47.5961 -313.372
rfingers 7.12502
rthumb -20.2803 17.6664
lclavicle 1.19271e-015 -1.61016e-014
lhumerus -21.2597 -63.0871 108.577
lradius 75.9435
lwrist 68.7093
lhand -26.4927 71.3065
lfingers 7.12502
lthumb 0.0698545 -461.286
rfemur -23.9002 4.03774 18.5614
rtibia 14.414
rfoot -4.72827 -6.23012
rtoes -11.4227
lfemur -23.9601 -2.45281 -10.6371
ltibia 25.8452
lfoot -16.0637 10.8858
ltoes -32.0374
814
root 4.02086 17.7185 -7.67751 17.8799 -29.5361 -3.76511
lowerback 10.1511 -0.224733 0.844399
upperback 3.2219 -0.216378 1.02201
thorax -2.33974 -0.123962 0.608742
lowerneck -21.8885 0.631961 -2.27767
upperneck 42.4561 1.08363 0.82936
head 20.4942 -0.019614 1.02138
rclavicle -2.31584e-014 2.84262e-014
rhumerus -13.5282 33.4158 -70.614
rradius 76.9945
rwrist 24.0395
rhand -47.1426 -313.798
rfingers 7.12502
rthumb -19.8444 17.195
lclavicle -2.31584e-014 2.84262e-014
lhumerus -21.2915 -62.6899 108.765
lradius 75.8927
lwrist 68.5985
lhand -26.5386 71.2485
lfingers 7.12502
lthumb 0.0255112 -461.228
rfemur -23.9403 4.07969 18.4975
rtibia 14.4339
rfoot -4.69919 -6.19606
rtoes -11.6079
lfemur -23.9286 -2.40093 -10.7128
ltibia 25.816
lfoot -16.1042 10.9277
ltoes -31.9743
815
root 4.02661 17.7154 -7.67902 17.8534 -29.5664 -3.70706
lowerback 10.213 -0.224977 0.962454
upperback 3.18838 -0.203511 1.01678
thorax -2.40889 -0.117611 0.535829
lowerneck -21.7486 0.698321 -2.24752
upperneck 42.318 1.17043 0.83446
head 20.3559 0.0232672 1.03562
rclavicle -6.81831e-014 5.40694e-014
rhumerus -12.9699 33.7157 -70.1664
rradius 76.7075
rwrist 24.0771
rhand -47.0739 -314.245
rfingers 7.12502
rthumb -19.7783 16.7415
lclavicle -6.81831e-014 5.40694e-014
lhumerus -21.4852 -62.504 109.005
lradius 75.9002
lwrist 68.6439
lhand -26.8241 71.289
lfingers 7.12502
lthumb -0.250171 -461.269
rfemur -23.9832 4.04312 18.4319
rtibia 14.4367
rfoot -4.68244 -6.20737
rtoes -11.0999
lfemur -23.9388 -2.42504 -10.783
ltibia 25.8025
lfoot -16.0689 10.9742
ltoes -32.1405
816
root 4.03015 17.7146 -7.68125 17.8536 -29.5763 -3.63713
lowerback 10.2365 -0.209862 1.10327
upperback 3.15507 -0.169908 0.961349
thorax -2.45694 -0.100835 0.39538
lowerneck -21.6303 0.686768 -2.15902
upperneck 42.2127 1.08844 0.878153
head 20.2518 0.0168211 1.02087
rclavicle 8.15017e-015 -2.44505e-014
rhumerus -12.4634 34.2576 -69.7383
rradius 76.4365
rwrist 23.6543
rhand -47.216 -314.495
rfingers 7.12502
rthumb -19.915 16.5058
lclavicle 8.15017e-015 -2.44505e-014
lhumerus -21.7249 -62.409 109.205
lradius 75.9985
lwrist 68.7211
lhand -26.9633 71.2954
lfingers 7.12502
lthumb -0.384625 -461.275
rfemur -24.0324 4.00922 18.3613
rtibia 14.4077
rfoot -4.64658 -6.22316
rtoes -10.7533
lfemur -23.9963 -2.42528 -10.8562
ltibia 25.8049
lfoot -16.0349 10.9739
ltoes -32.092
817
root 4.0287 17.7169 -7.68399 17.8679 -29.5974 -3.59666
lowerback 10.1973 -0.212113 1.11321
upperback 3.16023 -0.171878 0.989457
thorax -2.42996 -0.101815 0.41892
lowerneck -21.584 0.739942 -2.14508
upperneck 42.1377 1.17479 0.859693
head 20.1856 0.0514706 1.0274
rclavicle 1.66979e-014 -7.25564e-015
rhumerus -11.7837 35.1042 -69.1364
rradius 76.1435
rwrist 23.097
rhand -47.3372 -314.642
rfingers 7.12502
rthumb -20.0314 16.3702
lclavicle 1.66979e-014 -7.25564e-015
lhumerus -21.7741 -62.1418 109.268
lradius 76.0841
lwrist 68.6656
lhand -26.9111 71.3096
lfingers 7.12502
lthumb -0.334229 -461.289
rfemur -24.0499 4.03442 18.3201
rtibia 14.3615
rfoot -4.59917 -6.24165
rtoes -10.836
lfemur -24.0415 -2.41078 -10.8952
ltibia 25.8199
lfoot -16.0071 10.9971
ltoes -32.1565
818
root 4.02601 17.7184 -7.68638 17.8883 -29.5734 -3.59547
lowerback 10.0984 -0.235271 1.1318
upperback 3.22018 -0.202468 1.03956
thorax -2.31334 -0.11693 0.463274
lowerneck -21.5947 0.806937 -2.08656
upperneck 42.0466 1.30735 0.750735
head 20.1265 0.0983962 0.991294
rclavicle -2.73826e-014 2.10712e-014
rhumerus -10.9001 35.8657 -68.4853
rradius 75.5959
rwrist 23.2212
rhand -47.1893 -314.786
rfingers 7.12502
rthumb -19.8893 16.2122
lclavicle -2.73826e-014 2.10712e-014
lhumerus -21.6727 -61.916 109.163
lradius 76.1358
lwrist 68.5186
lhand -26.9138 71.3381
lfingers 7.12502
lthumb -0.33679 -461.318
rfemur -24.0563 4.06456 18.3148
rtibia 14.3256
rfoot -4.56249 -6.28513
rtoes -10.6695
lfemur -24.075 -2.52012 -10.862
ltibia 25.8278
lfoot -16.0207 11.0947
ltoes -32.1304
819
root 4.02501 17.7184 -7.68858 17.9054 -29.5283 -3.58155
lowerback 10.0281 -0.255314 1.24706
upperback 3.2668 -0.220708 1.02085
thorax -2.22677 -0.125616 0.380693
lowerneck -21.6261 0.844355 -1.95477
upperneck 41.998 1.33967 0.683747
head 20.1047 0.124338 0.941223
rclavicle -3.05134e-014 -1.26228e-014
rhumerus -10.0741 36.633 -67.9801
rradius 74.9362
rwrist 23.523
rhand -47.1252 -314.98
rfingers 7.12502
rthumb -19.8277 16.0115
lclavicle -3.05134e-014 -1.26228e-014
lhumerus -21.6538 -61.8262 109.071
lradius 76.1984
lwrist 68.3503
lhand -26.9915 71.4806
lfingers 7.12502
lthumb -0.411855 -461.46
rfemur -24.0655 4.03217 18.3113
rtibia 14.2719
rfoot -4.50265 -6.28855
rtoes -10.6658
lfemur -24.1192 -2.6332 -10.8404
ltibia 25.8275
lfoot -15.9619 11.1784
ltoes -32.4611
820
root 4.02266 17.7188 -7.69088 17.922 -29.4937 -3.60243
lowerback 10.0403 -0.262453 1.3621
upperback 3.27674 -0.21895 1.0253
thorax -2.22344 -0.124669 0.320422
lowerneck -21.6491 0.887457 -1.88014
upperneck 41.9918 1.39669 0.637495
head 20.1074 0.152122 0.917834
rclavicle -3.59303e-014 7.85199e-015
rhumerus -9.36818 37.6685 -67.4292
rradius 74.448
rwrist 23.5145
rhand -47.274 -314.872
rfingers 7.12502
rthumb -19.9707 16.1342
lclavicle -3.59303e-014 7.85199e-015
lhumerus -21.7075 -61.693 109.128
lradius 76.2171
lwrist 68.2426
lhand -27.1231 71.6457
lfingers 7.12502
lthumb -0.538943 -461.625
rfemur -24.0489 4.0009 18.3554
rtibia 14.2245
rfoot -4.44389 -6.26828
rtoes -11.2294
lfemur -24.1319 -2.63891 -10.8041
ltibia 25.8166
lfoot -15.8406 11.2017
ltoes -32.99
821
root 4.01729 17.7217 -7.69324 17.9655 -29.4525 -3.68722
lowerback 10.0763 -0.262656 1.4424
upperback 3.27666 -0.208842 1.09726
thorax -2.24321 -0.120004 0.348743
lowerneck -21.7152 0.948349 -1.87587
upperneck 42.0755 1.51283 0.593582
head 20.1809 0.188571 0.923042
rclavicle -5.37216e-014 2.43511e-014
rhumerus -8.68638 38.7803 -66.7494
rradius 74.1058
rwrist 23.4146
rhand -47.5111 -314.657
rfingers 7.12502
rthumb -20.1986 16.3733
lclavicle -5.37216e-014 2.43511e-014
lhumerus -21.7584 -61.4817 109.248
lradius 76.2189
lwrist 68.2104
lhand -27.2304 71.6039
lfingers 7.12502
lthumb -0.642612 -461.583
rfemur -24.0322 4.03626 18.4548
rtibia 14.2275
rfoot -4.42877 -6.26841
rtoes -11.9483
lfemur -24.1243 -2.60053 -10.7005
ltibia 25.7903
lfoot -15.9387 11.1388
ltoes -32.3208
822
root 4.01192 17.7262 -7.69554 18.0087 -29.4125 -3.72839
lowerback 10.0892 -0.25631 1.50411
upperback 3.27318 -0.192615 1.15332
thorax -2.25374 -0.112185 0.370225
lowerneck -21.8466 1.0259 -1.91722
upperneck 42.3121 1.62047 0.668528
head 20.3746 0.226792 0.997029
rclavicle -4.05024e-014 1.76918e-014
rhumerus -8.06001 39.7442 -66.1145
rradius 73.8576
rwrist 23.2232
rhand -47.6499 -314.828
rfingers 7.12502
rthumb -20.332 16.2166
lclavicle -4.05024e-014 1.76918e-014
lhumerus -21.8199 -61.2889 109.366
lradius 76.2519
lwrist 68.096
lhand -27.0794 71.4053
lfingers 7.12502
lthumb -0.496792 -461.384
rfemur -24.049 4.02528 18.5207
rtibia 14.2569
rfoot -4.45724 -6.20729
rtoes -12.5085
lfemur -24.1413 -2.58996 -10.638
ltibia 25.761
lfoot -16.0283 11.1115
ltoes -31.9903
823
root 4.00763 17.7271 -7.69843 17.995 -29.3591 -3.68735
lowerback 10.1168 -0.250413 1.54226
upperback 3.27379 -0.18027 1.1609
thorax -2.26824 -0.106131 0.355301
lowerneck -21.8371 1.01186 -1.83405
upperneck 42.3697 1.6401 0.493679
head 20.4156 0.221928 0.898719
rclavicle 1.61513e-014 -2.39536e-014
rhumerus -7.56795 40.5711 -65.5338
rradius 73.7808
rwrist 23.0111
rhand -47.2241 -314.817
rfingers 7.12502
rthumb -19.9227 16.1839
lclavicle 1.61513e-014 -2.39536e-014
lhumerus -21.8768 -61.2108 109.476
lradius 76.2838
lwrist 67.9229
lhand -26.8121 71.1913
lfingers 7.12502
lthumb -0.238624 -461.171
rfemur -24.0796 3.91288 18.5304
rtibia 14.305
rfoot -4.48513 -6.10508
rtoes -12.9648
lfemur -24.1526 -2.68578 -10.6357
ltibia 25.7358
lfoot -15.967 11.1625
ltoes -32.2713
